<?xml version="1.0" standalone="no"?>
<!DOCTYPE svg PUBLIC "-//W3C//DTD SVG 20010904//EN"
 "http://www.w3.org/TR/2001/REC-SVG-20010904/DTD/svg10.dtd">
<svg version="1.0" xmlns="http://www.w3.org/2000/svg"
 width="32.000000pt" height="32.000000pt" viewBox="0 0 32.000000 32.000000"
 preserveAspectRatio="xMidYMid meet">

<g transform="translate(0.000000,32.000000) scale(0.100000,-0.100000)"
fill="#000000" stroke="none">
<path d="M133 268 c-21 -10 -23 -18 -21 -77 l2 -66 3 60 c4 53 14 74 35 75 4
0 9 -42 11 -92 l3 -93 2 103 c1 56 -1 102 -5 101 -5 0 -18 -5 -30 -11z"/>
<path d="M208 234 c-27 -14 -28 -18 -26 -82 l2 -67 3 62 c3 49 8 65 23 73 17
9 19 6 23 -47 l3 -58 2 68 c1 37 1 67 0 67 -2 -1 -15 -8 -30 -16z"/>
<path d="M58 174 c-24 -13 -28 -20 -26 -57 l1 -42 4 37 c3 24 11 42 23 48 16
8 19 6 23 -18 3 -22 4 -20 6 11 0 20 0 37 -1 37 -2 -1 -15 -8 -30 -16z"/>
<path d="M260 126 c0 -8 -20 -26 -45 -41 l-46 -26 -29 25 -30 25 -50 -31 c-63
-39 -58 -50 5 -13 l46 28 28 -27 28 -27 47 31 c26 18 53 29 61 26 8 -3 19 3
25 14 14 27 13 30 -15 30 -15 0 -25 -6 -25 -14z"/>
</g>
</svg>
